<?xml version="1.0" standalone="no"?>
<!DOCTYPE svg PUBLIC "-//W3C//DTD SVG 20010904//EN"
 "http://www.w3.org/TR/2001/REC-SVG-20010904/DTD/svg10.dtd">
<svg version="1.0" xmlns="http://www.w3.org/2000/svg"
 width="31.000000pt" height="32.000000pt" viewBox="0 0 31.000000 32.000000"
 preserveAspectRatio="xMidYMid meet">

<g transform="translate(0.000000,32.000000) scale(0.100000,-0.100000)"
fill="#000000" stroke="none">
<path d="M17 309 c-15 -9 -17 -27 -17 -149 0 -127 2 -140 19 -150 11 -5 81
-10 155 -10 l136 0 0 140 c0 184 4 180 -157 180 -65 0 -126 -5 -136 -11z m209
-68 c44 -27 60 -77 40 -125 -29 -71 -119 -96 -186 -54 l-35 23 27 3 c17 2 34
-4 47 -17 49 -49 96 -10 96 80 0 47 -5 63 -22 81 -21 20 -25 21 -63 8 -43 -14
-68 -7 -29 9 39 16 92 12 125 -8z m-126 -50 c0 -5 -10 -7 -22 -3 -14 3 -19 2
-14 -6 4 -7 13 -12 21 -12 17 0 26 -23 15 -40 -9 -14 -60 -6 -60 10 0 6 8 5
20 -2 10 -7 23 -8 27 -4 4 5 3 11 -3 13 -26 9 -47 31 -40 41 8 14 56 16 56 3z
m43 -43 c9 -31 2 -33 -17 -3 -13 20 -14 25 -2 25 7 0 16 -10 19 -22z"/>
</g>
</svg>
